<svg width="50" height="50" viewBox="0 0 50 50" fill="none" xmlns="http://www.w3.org/2000/svg">
<circle cx="25" cy="25" r="25" fill="#FE006C"/>
<path d="M39.9997 10V22.5357H37.0347V40H20.7495V34.5747H16.9317V22.5357H10V10H40H39.9997ZM26.2207 14.3621V16.0496C27.834 16.3028 28.8981 17.3042 28.9579 18.9985L26.9603 19.0679C26.8775 18.5695 26.6875 18.0848 26.2206 17.8404V20.0241C27.9356 20.4902 29.2469 21.1462 29.2469 23.164C29.2469 24.9709 27.8717 25.965 26.2206 26.1674V27.833H24.2566V26.1431C22.4169 25.8478 21.4493 24.6789 21.2309 22.837L23.1729 22.644C23.3 23.3523 23.5843 23.9997 24.2567 24.3226V21.5852C22.8362 21.1625 21.6027 20.4117 21.6027 18.741C21.6027 17.1766 22.8304 16.2621 24.2567 16.0415V14.3621L26.2207 14.3621ZM26.2207 22.1144V24.4156C26.7703 24.242 27.2498 23.7856 27.2498 23.1757C27.2498 22.5863 26.8348 22.3289 26.3312 22.152L26.2207 22.1147L26.2207 22.1144ZM24.2567 19.4627V17.765C23.8626 17.9008 23.5036 18.146 23.5036 18.6082C23.5036 19.0773 23.8753 19.3049 24.2567 19.463V19.4627ZM35.3531 17.5561H33.0683V34.5745H22.4301V38.3146H35.3528V17.5559L35.3531 17.5561ZM18.6125 11.6856V32.8895H31.3876V11.6856H18.6125ZM16.9315 11.6856H11.6811V20.8505H16.9315V11.6856ZM38.3187 11.6856H33.0683V15.8708H37.0344V20.8505H38.3185V11.6856H38.3187Z" fill="white"/>
</svg>
