<svg width="493" height="458" viewBox="0 0 493 458" fill="none" xmlns="http://www.w3.org/2000/svg">
<path d="M72.1955 423.447C168.463 469.324 324.537 469.338 420.804 423.447C517.072 377.555 517.058 303.178 420.804 257.301C324.551 211.423 168.463 211.423 72.1955 257.301C-24.0722 303.178 -24.0582 377.569 72.1955 423.447Z" fill="#F5F5F5"/>
<path d="M420.469 389.541C438.199 389.541 452.573 382.692 452.573 374.244C452.573 365.796 438.199 358.947 420.469 358.947C402.739 358.947 388.366 365.796 388.366 374.244C388.366 382.692 402.739 389.541 420.469 389.541Z" fill="#EBEBEB"/>
<path d="M64.8894 376.437L76.2471 369.885C82.5884 364.711 87.4149 357.92 90.2171 350.229C93.7236 340.562 93.2347 333.214 90.7201 329.526C87.6327 324.986 79.6278 325.782 79.3065 335.337C78.636 354.169 73.1457 367.231 64.8894 376.437Z" fill="#FE006C"/>
<path opacity="0.2" d="M64.8894 376.437L76.2471 369.885C82.5884 364.711 87.4149 357.92 90.2171 350.229C93.7236 340.562 93.2347 333.214 90.7201 329.526C87.6327 324.986 79.6278 325.782 79.3065 335.337C78.636 354.169 73.1457 367.231 64.8894 376.437Z" fill="black"/>
<path d="M64.8892 377.136C64.7413 377.134 64.5978 377.085 64.4794 376.997C64.3609 376.908 64.2737 376.784 64.2302 376.643C64.1867 376.501 64.1892 376.35 64.2373 376.21C64.2855 376.07 64.3768 375.949 64.4981 375.865C90.7618 357.703 85.6767 332.376 85.6208 332.124C85.6015 332.033 85.6005 331.938 85.6178 331.846C85.6351 331.754 85.6704 331.666 85.7217 331.587C85.7729 331.509 85.8391 331.441 85.9165 331.388C85.9938 331.335 86.0809 331.298 86.1726 331.279C86.2643 331.26 86.359 331.259 86.4511 331.276C86.5432 331.293 86.631 331.329 86.7095 331.38C86.788 331.431 86.8556 331.497 86.9085 331.575C86.9614 331.652 86.9985 331.739 87.0178 331.831C87.0178 332.096 92.3823 358.29 65.3363 377.01C65.205 377.1 65.048 377.144 64.8892 377.136Z" fill="white"/>
<path d="M42.132 389.583C42.132 389.583 38.1785 386.37 39.1284 382.011C40.0784 377.653 42.6349 374.523 38.2623 368.907C33.8897 363.291 32.6743 355.804 37.8991 351.752C41.8805 348.609 48.0972 353.051 50.3324 344.767C51.9809 338.704 51.4221 325.279 59.1475 320.808C66.873 316.338 71.7206 323.072 70.5052 332.18C69.4435 340.325 67.9347 348.162 69.1082 350.341C71.3713 354.532 75.241 353.959 75.0594 361.615C74.9058 368.74 68.1582 374.635 68.1582 374.635L42.132 389.583Z" fill="#FE006C"/>
<path d="M55.1103 382.752C54.9396 382.75 54.7751 382.687 54.6469 382.574C54.5187 382.461 54.4353 382.306 54.4118 382.137C52.4141 365.583 57.2058 337 61.1175 328.506C61.1504 328.412 61.2031 328.326 61.2721 328.254C61.3411 328.182 61.4247 328.125 61.5174 328.088C61.6101 328.051 61.7096 328.034 61.8093 328.039C61.909 328.043 62.0065 328.069 62.0954 328.115C62.1787 328.152 62.2538 328.206 62.316 328.273C62.3782 328.34 62.4264 328.419 62.4576 328.505C62.4889 328.591 62.5026 328.682 62.498 328.774C62.4933 328.865 62.4704 328.955 62.4306 329.037C58.5609 337.419 53.9368 366.085 55.8507 381.914C55.8704 382.097 55.8168 382.28 55.7016 382.424C55.5865 382.568 55.4192 382.661 55.2361 382.682L55.1103 382.752Z" fill="white"/>
<path d="M54.7329 369.857C54.626 369.863 54.5197 369.838 54.4256 369.788C49.578 367.427 46.5046 359.003 46.3788 358.611C46.3446 358.525 46.3281 358.432 46.3304 358.338C46.3327 358.245 46.3537 358.153 46.3921 358.068C46.4305 357.983 46.4857 357.906 46.5542 357.843C46.6227 357.779 46.7033 357.73 46.7911 357.699C46.8789 357.667 46.9722 357.653 47.0655 357.658C47.1588 357.663 47.2501 357.686 47.3341 357.727C47.4181 357.768 47.493 357.825 47.5545 357.896C47.616 357.966 47.6627 358.048 47.692 358.137C47.692 358.22 50.6956 366.379 55.0403 368.488C55.1828 368.557 55.2976 368.673 55.3659 368.816C55.4343 368.958 55.452 369.12 55.4163 369.275C55.3806 369.429 55.2935 369.566 55.1693 369.665C55.0452 369.763 54.8913 369.816 54.7329 369.816V369.857Z" fill="white"/>
<path d="M54.6493 375.445C54.5093 375.446 54.3727 375.403 54.2578 375.323C54.1429 375.243 54.0553 375.13 54.0067 374.998C53.9372 374.828 53.9378 374.637 54.0085 374.467C54.0791 374.297 54.214 374.161 54.3839 374.09C62.5424 370.821 67.6275 361.112 67.6834 361C67.7686 360.836 67.9158 360.711 68.0927 360.655C68.2695 360.599 68.4615 360.615 68.6264 360.7C68.7913 360.785 68.9155 360.933 68.9718 361.109C69.0282 361.286 69.0119 361.478 68.9267 361.643C68.7032 362.062 63.5483 371.925 54.9567 375.39C54.8609 375.435 54.7549 375.454 54.6493 375.445Z" fill="white"/>
<path d="M339.82 300.286C339.82 300.286 333.715 290.396 333.114 279.653C332.514 268.91 334.875 264.439 338.116 263.154C341.357 261.869 341.608 265.822 343.271 268.155C344.933 270.488 348.328 269.161 349.585 261.883C350.842 254.604 355.425 242.325 364.952 239.936C375.43 237.337 369.814 249.631 367.173 254.423C364.533 259.215 362.493 265.753 364.226 267.527C365.958 269.301 368.654 266.018 371.211 269.063C374.326 272.738 364.645 285.967 359.085 289.166L339.82 300.286Z" fill="#FE006C"/>
<path d="M348.188 296.137C348.096 296.134 348.006 296.112 347.923 296.074C347.839 296.035 347.764 295.981 347.702 295.913C347.64 295.846 347.591 295.767 347.56 295.68C347.528 295.594 347.514 295.503 347.517 295.411C348.463 278.129 353.853 261.384 363.164 246.795C363.217 246.719 363.284 246.655 363.363 246.605C363.441 246.556 363.529 246.524 363.62 246.509C363.711 246.495 363.805 246.499 363.894 246.522C363.984 246.545 364.068 246.585 364.142 246.641C364.288 246.75 364.386 246.912 364.415 247.092C364.444 247.272 364.401 247.456 364.295 247.605C355.151 261.981 349.859 278.468 348.928 295.481C348.923 295.573 348.9 295.662 348.86 295.745C348.819 295.828 348.763 295.902 348.695 295.963C348.626 296.024 348.546 296.071 348.459 296.101C348.372 296.131 348.28 296.143 348.188 296.137Z" fill="white"/>
<path d="M348.984 287.881C348.868 287.88 348.753 287.851 348.649 287.797C344.738 285.632 342.572 279.206 342.488 278.94C342.458 278.853 342.444 278.761 342.449 278.669C342.455 278.576 342.478 278.486 342.518 278.403C342.559 278.32 342.615 278.245 342.684 278.184C342.753 278.123 342.834 278.076 342.921 278.046C343.097 277.989 343.289 278.004 343.454 278.088C343.619 278.171 343.744 278.317 343.802 278.493C343.802 278.493 345.897 284.682 349.39 286.568C349.548 286.661 349.664 286.812 349.713 286.989C349.763 287.167 349.742 287.356 349.655 287.518C349.592 287.638 349.494 287.737 349.375 287.801C349.256 287.866 349.12 287.894 348.984 287.881Z" fill="white"/>
<path d="M349.669 283.648C349.514 283.646 349.364 283.593 349.243 283.497C349.122 283.401 349.036 283.268 348.998 283.117C348.975 283.029 348.97 282.937 348.983 282.847C348.996 282.757 349.027 282.671 349.074 282.593C349.121 282.515 349.183 282.447 349.256 282.393C349.329 282.339 349.413 282.3 349.501 282.279C359.588 279.723 363.08 274.442 363.108 274.386C363.158 274.308 363.222 274.241 363.298 274.188C363.373 274.134 363.459 274.097 363.549 274.077C363.639 274.057 363.732 274.054 363.823 274.07C363.914 274.086 364.001 274.12 364.079 274.169C364.157 274.219 364.225 274.283 364.278 274.359C364.331 274.435 364.368 274.52 364.388 274.61C364.409 274.7 364.411 274.793 364.395 274.884C364.379 274.975 364.345 275.062 364.296 275.14C364.142 275.378 360.51 280.924 349.851 283.634L349.669 283.648Z" fill="white"/>
<path d="M187.826 278.577C187.826 278.577 174.429 275.308 173.73 250.218C172.99 223.144 177.013 191.544 161.157 188.987C145.301 186.43 136.5 205.751 136.695 228.313C136.877 248.066 144.84 290.955 187.77 299.365L187.826 278.577Z" fill="#FE006C"/>
<path opacity="0.2" d="M187.826 278.577C187.826 278.577 174.429 275.308 173.73 250.218C172.99 223.144 177.013 191.544 161.157 188.987C145.301 186.43 136.5 205.751 136.695 228.313C136.877 248.066 144.84 290.955 187.77 299.365L187.826 278.577Z" fill="black"/>
<path d="M187.826 296.794H187.7C178.047 295.034 170.182 289.711 164.328 280.994C146.977 255.107 152.44 206.771 154.242 198.333C154.282 198.153 154.391 197.996 154.544 197.894C154.698 197.793 154.885 197.755 155.066 197.788C155.247 197.832 155.404 197.943 155.506 198.099C155.607 198.255 155.645 198.443 155.611 198.626C153.837 207.008 148.402 254.73 165.488 280.212C167.975 284.163 171.256 287.555 175.123 290.171C178.99 292.788 183.359 294.572 187.952 295.411C188.043 295.428 188.13 295.462 188.207 295.513C188.285 295.564 188.352 295.629 188.404 295.706C188.456 295.783 188.492 295.869 188.51 295.96C188.529 296.051 188.529 296.144 188.51 296.235C188.481 296.394 188.396 296.538 188.27 296.64C188.145 296.742 187.988 296.797 187.826 296.794Z" fill="white"/>
<path d="M187.826 361.182C173.981 363.054 151.504 363.026 138.525 352.8C125.547 342.574 128.257 333.773 133.245 330.099C138.232 326.424 142.563 322.233 133.985 314.075C125.408 305.916 111.633 292.813 107.163 273.157C102.692 253.501 104.9 241.207 113.673 237.114C122.18 233.146 124.43 239.461 129.64 252.481C134.851 265.501 146.572 254.339 156.603 258.404C166.633 262.47 166.228 270.516 166.857 277.431C167.485 284.347 170.796 286.261 176.482 286.261C182.168 286.261 187.826 289.53 187.826 296.04V361.182Z" fill="#FE006C"/>
<path d="M187.826 338.355C187.766 338.368 187.704 338.368 187.644 338.355C187.043 338.187 172.724 334.024 151.867 314.871C129.654 294.475 119.177 263.88 119.065 263.573C119.011 263.397 119.028 263.207 119.111 263.043C119.195 262.879 119.338 262.754 119.512 262.693C119.686 262.635 119.876 262.648 120.041 262.729C120.206 262.81 120.332 262.953 120.392 263.126C120.49 263.433 130.87 293.693 152.817 313.837C173.381 332.739 187.868 336.972 188.021 337.014C188.109 337.039 188.191 337.082 188.263 337.14C188.335 337.197 188.394 337.268 188.438 337.348C188.482 337.429 188.51 337.517 188.52 337.608C188.53 337.7 188.522 337.792 188.496 337.88C188.451 338.021 188.361 338.144 188.24 338.229C188.119 338.315 187.974 338.359 187.826 338.355Z" fill="white"/>
<path d="M157.692 319.733C157.552 319.735 157.414 319.693 157.299 319.613C157.184 319.533 157.097 319.418 157.05 319.286C152.565 307.774 151.546 283.145 151.462 282.097C151.458 281.913 151.526 281.734 151.651 281.599C151.776 281.464 151.948 281.382 152.132 281.371C152.315 281.374 152.49 281.444 152.624 281.567C152.758 281.691 152.842 281.86 152.859 282.042C152.859 282.293 153.907 307.481 158.307 318.783C158.341 318.869 158.357 318.961 158.355 319.053C158.353 319.146 158.332 319.237 158.294 319.322C158.257 319.406 158.203 319.482 158.135 319.546C158.068 319.609 157.989 319.658 157.902 319.691C157.835 319.715 157.764 319.729 157.692 319.733Z" fill="white"/>
<path d="M157.581 336.287C156.293 336.297 155.005 336.232 153.725 336.092C153.633 336.081 153.544 336.052 153.464 336.007C153.383 335.961 153.313 335.901 153.255 335.828C153.198 335.755 153.156 335.672 153.131 335.583C153.106 335.494 153.099 335.401 153.11 335.309C153.121 335.218 153.15 335.129 153.195 335.049C153.241 334.968 153.301 334.897 153.374 334.84C153.447 334.783 153.53 334.741 153.619 334.716C153.708 334.691 153.801 334.684 153.892 334.695C154.018 334.695 167.024 336.176 172.99 330.099C173.052 330.025 173.128 329.965 173.215 329.923C173.301 329.88 173.395 329.856 173.491 329.852C173.587 329.847 173.683 329.863 173.773 329.897C173.863 329.932 173.945 329.984 174.014 330.052C174.082 330.12 174.136 330.201 174.172 330.29C174.207 330.379 174.224 330.475 174.221 330.571C174.218 330.667 174.195 330.762 174.154 330.849C174.113 330.936 174.054 331.013 173.981 331.077C169.665 335.533 162.135 336.287 157.581 336.287Z" fill="white"/>
<path d="M147.522 71.7503L146.013 63.0469L138.246 68.1599C137.536 66.763 136.53 65.5378 135.298 64.5696L139.014 54.5112L132.029 52.9605L126.916 62.7395C125.066 63.0516 123.273 63.6354 121.594 64.4718L119.372 57.0956L111.074 63.6197L111.619 72.2811C109.929 74.174 108.397 76.2018 107.037 78.3441L100.192 77.9949L95.3859 88.7658L101.267 91.2804C100.653 93.5083 100.265 95.7922 100.108 98.0978L92.6338 104.971L94.1286 113.688L101.91 108.575C102.616 109.971 103.622 111.193 104.858 112.152L101.211 122.224L108.196 123.761L115.517 116.636C117.207 116.371 116.788 113.185 118.632 112.277L120.853 119.626L129.138 113.116L128.928 109.707C130.604 107.835 136.947 103.714 138.316 101.562L140.034 98.7683L144.84 87.9974L142.605 83.9461L140.118 78.6654L147.522 71.7503ZM122.167 100.403C115.796 105.404 113.784 106.508 112.709 99.8161C111.633 93.1244 115.279 82.9542 121.65 77.939C128.02 72.9237 130.451 72.5745 131.596 79.2522C132.742 85.9299 128.551 95.4574 122.167 100.403Z" fill="#E0E0E0"/>
<path d="M132.085 52.9605L141.152 58.1853L136.039 67.9364L126.972 62.7116L132.085 52.9605Z" fill="#F5F5F5"/>
<path d="M155.08 68.2717L147.313 73.3847L138.246 68.1599L146.013 63.0469L155.08 68.2717Z" fill="#F5F5F5"/>
<path d="M153.837 93.1803L147.955 90.6797L138.889 85.4549L144.77 87.9555L153.837 93.1803Z" fill="#E0E0E0"/>
<path d="M101.197 122.224L110.264 127.435L113.98 117.376L104.913 112.152L101.197 122.224Z" fill="#E0E0E0"/>
<path d="M129.836 124.85L120.783 119.626L118.562 112.277L127.629 117.502L129.836 124.85Z" fill="#E0E0E0"/>
<path d="M156.575 76.975L155.08 68.2717L147.313 73.3847C146.598 71.9872 145.587 70.762 144.351 69.7944L148.067 59.736L141.152 58.1853L136.025 67.9643C134.175 68.2764 132.382 68.8602 130.702 69.6966L128.495 62.3484L120.197 68.8724L120.742 77.5338C119.05 79.4401 117.517 81.482 116.16 83.6388L109.3 83.2895L104.495 94.0604L110.376 96.575C109.767 98.8089 109.379 101.097 109.216 103.406L101.756 110.182L103.251 118.899L111.019 113.786C111.734 115.18 112.744 116.4 113.98 117.362L110.264 127.421L117.249 128.972L122.362 119.193C124.219 118.884 126.019 118.295 127.699 117.446L129.906 124.795L138.204 118.285L137.659 109.623C139.349 107.73 140.882 105.702 142.242 103.56L149.101 103.895L153.907 93.1244L147.941 90.6238C148.56 88.3916 148.953 86.103 149.115 83.7924L156.575 76.975ZM131.247 105.684C124.891 110.685 118.8 109.33 117.64 102.652C116.481 95.9743 120.714 86.4887 127.084 81.4874C133.454 76.4861 139.531 77.8552 140.691 84.5328C141.85 91.2105 137.618 100.682 131.247 105.684Z" fill="#EBEBEB"/>
<path d="M128.495 62.3205L119.428 57.0956L111.13 63.6197L120.197 68.8445L128.495 62.3205Z" fill="#F5F5F5"/>
<path d="M111.13 63.6197L111.675 72.2811L120.742 77.5059L120.197 68.8445L111.13 63.6197Z" fill="#E0E0E0"/>
<path d="M116.159 83.5689L107.093 78.3441L100.247 78.0088L109.3 83.2336L116.159 83.5689Z" fill="#F5F5F5"/>
<path d="M100.247 78.0088L95.4418 88.7658L104.494 93.9906L109.3 83.2336L100.247 78.0088Z" fill="#E0E0E0"/>
<path d="M109.216 103.323L100.164 98.0978L92.6898 104.971L101.742 110.196L109.216 103.323Z" fill="#F5F5F5"/>
<path d="M103.251 118.913L94.1846 113.688L92.6898 104.971L101.742 110.196L103.251 118.913Z" fill="#E0E0E0"/>
<path d="M141.152 58.1853L132.085 52.9605L139.014 54.5112L148.067 59.736L141.152 58.1853Z" fill="#F5F5F5"/>
<path d="M106.925 32.2429V19.2368L96.5734 23.9028C96.0251 21.6961 95.0782 19.6082 93.7793 17.742L100.303 4.59615L92.3404 0L84.2099 12.2238C81.9441 12.0259 79.6612 12.2485 77.4763 12.8804L76.3307 1.57862L65.0709 8.08867L63.9393 20.6617C61.4888 22.8331 59.2354 25.2173 57.2057 27.7865L49.0752 24.9924L41.1122 38.7949L47.6223 44.3829C46.4194 47.4249 45.4845 50.5661 44.8283 53.7708L34.4764 61.0492V74.0693L44.8283 69.4033C45.3765 71.6099 46.3234 73.6978 47.6223 75.5641L41.1402 88.7239L49.1031 93.32L57.2337 81.0962C59.4995 81.2935 61.7822 81.0709 63.9672 80.4396L65.0988 91.7414L76.3587 85.2313L77.5042 72.6583C81.0186 71.376 84.1319 69.1881 86.5289 66.3159L92.3684 68.3695L100.331 54.581L95.4418 50.39C96.5032 46.8952 96.8966 43.2317 96.6013 39.5912L106.925 32.2429ZM70.7008 64.7373C62.0673 69.7246 56.7308 66.1343 56.7308 56.2016C56.7308 46.2688 63.8694 33.9892 72.5169 29.0019C81.1644 24.0145 86.3892 27.6048 86.3892 37.6214C86.3892 47.6379 79.3483 59.736 70.7008 64.7373Z" fill="#E0E0E0"/>
<path d="M101.393 5.21084L92.3403 0L84.2097 12.2238L93.2623 17.4486L101.393 5.21084Z" fill="#F5F5F5"/>
<path d="M115.992 24.4616L106.925 19.2368L96.5732 23.9028L105.64 29.1276L115.992 24.4616Z" fill="#F5F5F5"/>
<path d="M74.1233 96.9662L65.0707 91.7414L63.9391 80.4396L72.9918 85.6644L74.1233 96.9662Z" fill="#E0E0E0"/>
<path d="M41.0983 88.7239L50.1649 93.9487L56.6889 80.8029L47.6223 75.5781L41.0983 88.7239Z" fill="#E0E0E0"/>
<path d="M115.992 37.5376V24.5314L105.64 29.1555C105.097 26.9469 104.15 24.858 102.846 22.9947L109.37 9.84889L101.407 5.23877L93.2763 17.4765C91.0105 17.2717 88.7263 17.4944 86.5428 18.1331L85.3972 6.80342L74.1373 13.3135L72.9918 25.8865C70.5448 28.0615 68.2918 30.4455 66.2582 33.0113L58.1277 30.2172L50.1647 44.0197L56.6887 49.6077C55.4795 52.6475 54.5444 55.7893 53.8947 58.9956L43.5429 66.274V79.2941L53.8947 74.6281C54.437 76.8368 55.3843 78.9258 56.6887 80.7889L50.1647 93.9347L58.1277 98.5309L66.2582 86.3071C68.524 86.505 70.8069 86.2824 72.9918 85.6505L74.1373 96.9522L85.3972 90.4422L86.5288 77.8691C88.9793 75.6977 91.2326 73.3135 93.2624 70.7444L101.393 73.5384L109.356 59.75L102.832 54.1619C104.041 51.122 104.976 47.9803 105.626 44.7741L115.992 37.5376ZM79.7673 70.0319C71.1198 75.0192 64.1068 70.9679 64.1068 60.9933C64.1068 51.0187 71.0919 38.8787 79.7673 33.8774C88.4427 28.8761 95.4138 32.9414 95.4138 42.916C95.4138 52.8907 88.4008 64.9608 79.7673 69.9621V70.0319Z" fill="#EBEBEB"/>
<path d="M57.2056 27.8144L66.2583 33.0392L58.1277 30.2033L49.0751 24.9645L57.2056 27.8144Z" fill="#F0F0F0"/>
<path d="M49.0742 24.9787L41.1091 38.7858L50.1727 44.0145L58.1378 30.2074L49.0742 24.9787Z" fill="#F5F5F5"/>
<path d="M41.0983 38.7669L50.1649 43.9917L56.6889 49.6077L47.6223 44.3969L41.0983 38.7669Z" fill="#E0E0E0"/>
<path d="M44.8283 53.7847L53.8949 59.0095L43.5431 66.2879L34.4765 61.0631L44.8283 53.7847Z" fill="#F5F5F5"/>
<path d="M34.4765 61.0631L43.5431 66.2879V79.308L34.4765 74.0832V61.0631Z" fill="#E0E0E0"/>
<path d="M85.3972 6.80341L76.3307 1.57861L65.0708 8.08866L74.1234 13.3135L85.3972 6.80341Z" fill="#F5F5F5"/>
<path d="M201.628 379.874L332.947 304.044C333.236 303.943 333.487 303.754 333.664 303.503C333.841 303.253 333.937 302.954 333.937 302.647C333.937 302.341 333.841 302.042 333.664 301.791C333.487 301.541 333.236 301.352 332.947 301.25L320.807 294.265C320.055 293.887 319.225 293.69 318.383 293.69C317.541 293.69 316.711 293.887 315.959 294.265L184.599 370.025C184.309 370.127 184.059 370.316 183.882 370.566C183.704 370.816 183.609 371.115 183.609 371.422C183.609 371.729 183.704 372.028 183.882 372.278C184.059 372.528 184.309 372.717 184.599 372.819L196.781 379.804C197.527 380.193 198.354 380.402 199.196 380.414C200.038 380.427 200.871 380.241 201.628 379.874Z" fill="#E0E0E0"/>
<path d="M329.342 11.2738L210.932 79.6433C209.172 80.792 207.707 82.3392 206.656 84.1595C205.605 85.9798 204.998 88.0221 204.883 90.1208V371.017C204.883 374.873 207.593 376.437 210.932 374.509L329.342 306.14C331.105 304.994 332.572 303.447 333.623 301.626C334.674 299.805 335.28 297.762 335.391 295.662V14.7663C335.391 10.9106 332.695 9.34594 329.342 11.2738Z" fill="#455A64"/>
<path d="M210.932 79.6433L329.343 11.2738C332.332 9.54153 334.805 10.6172 335.308 13.6208C335.029 11.7324 334.353 9.92451 333.324 8.31608C332.296 6.70766 330.939 5.33512 329.343 4.28878L324.425 1.49477C322.551 0.543692 320.478 0.0480347 318.376 0.0480347C316.274 0.0480347 314.202 0.543692 312.327 1.49477L193.903 69.8084C192.119 70.9268 190.648 72.4793 189.628 74.3207L206.658 84.0998C207.678 82.2729 209.149 80.7384 210.932 79.6433Z" fill="#37474F"/>
<path d="M187.826 361.182C187.94 363.281 188.548 365.323 189.599 367.143C190.65 368.964 192.115 370.511 193.875 371.66L198.806 374.454C200.513 375.307 202.381 375.791 204.288 375.873C206.194 375.955 208.097 375.633 209.871 374.929C207.077 376.018 204.855 374.412 204.855 370.961V90.1209C204.925 88.0132 205.536 85.959 206.63 84.1556L189.6 74.3766C188.522 76.1663 187.912 78.1985 187.826 80.2859V361.182Z" fill="#263238"/>
<path d="M214.188 117.069L326.13 52.4575C328.141 51.312 329.762 52.248 329.762 54.553V262.455C329.695 263.715 329.331 264.942 328.699 266.034C328.068 267.127 327.188 268.055 326.13 268.742L214.229 333.354C212.218 334.513 210.597 333.577 210.597 331.258V123.356C210.661 122.1 211.019 120.876 211.643 119.784C212.266 118.692 213.138 117.762 214.188 117.069Z" fill="white"/>
<path d="M270.138 56.1038C269.52 56.5094 269.006 57.0545 268.637 57.695C268.268 58.3356 268.055 59.0538 268.014 59.7919C268.014 61.1889 268.964 61.7058 270.138 61.0212C270.758 60.6181 271.274 60.0736 271.643 59.4325C272.012 58.7914 272.224 58.0719 272.261 57.3331C272.261 55.978 271.311 55.4332 270.138 56.1038Z" fill="#37474F"/>
<path d="M270.138 310.988C267.695 312.585 265.664 314.736 264.208 317.265C262.751 319.794 261.911 322.63 261.755 325.544C261.755 330.895 265.513 333.074 270.138 330.392C272.579 328.794 274.61 326.643 276.066 324.114C277.522 321.585 278.363 318.749 278.52 315.835C278.548 310.485 274.776 308.305 270.138 310.988Z" fill="#37474F"/>
<path d="M250.035 77.7294C248.807 78.5444 247.788 79.6366 247.06 80.9179C246.332 82.1992 245.915 83.6337 245.844 85.1056C245.844 87.8158 247.743 88.9194 250.035 87.5643C251.275 86.757 252.308 85.6682 253.048 84.3865C253.789 83.1047 254.216 81.6662 254.295 80.1881C254.295 77.4779 252.395 76.3743 250.035 77.7294Z" fill="#37474F"/>
<path d="M260.47 76.8074C260.47 78.6235 261.867 79.308 263.502 78.3441L291.442 62.1807C292.307 61.6402 293.033 60.903 293.56 60.0291C294.086 59.1552 294.399 58.1692 294.473 57.1515C294.473 55.3494 293.076 54.6648 291.442 55.6288L263.502 71.7921C262.638 72.3313 261.913 73.0663 261.387 73.9376C260.86 74.8089 260.546 75.7921 260.47 76.8074Z" fill="#37474F"/>
<path d="M197.27 126.066C198.261 126.712 199.086 127.582 199.678 128.606C200.271 129.63 200.613 130.78 200.678 131.961C200.678 134.141 199.155 135.021 197.27 133.931C196.282 133.283 195.46 132.412 194.87 131.388C194.28 130.364 193.939 129.215 193.875 128.036C193.875 125.87 195.398 124.99 197.27 126.066Z" fill="#37474F"/>
<path d="M197.27 152.302C198.261 152.947 199.086 153.818 199.678 154.842C200.271 155.866 200.613 157.016 200.678 158.197C200.678 160.362 199.155 161.242 197.27 160.167C196.282 159.519 195.46 158.647 194.87 157.623C194.28 156.599 193.939 155.451 193.875 154.271C193.875 152.092 195.398 151.212 197.27 152.302Z" fill="#37474F"/>
<path d="M196.208 126.597C197.199 127.242 198.025 128.113 198.617 129.137C199.209 130.161 199.552 131.311 199.617 132.492C199.617 134.657 198.094 135.537 196.208 134.462C195.217 133.816 194.391 132.946 193.799 131.921C193.207 130.897 192.864 129.748 192.799 128.566C192.813 126.387 194.336 125.549 196.208 126.597Z" fill="#455A64"/>
<path d="M196.208 152.819C197.201 153.466 198.028 154.338 198.62 155.365C199.212 156.392 199.554 157.544 199.617 158.728C199.617 160.893 198.094 161.773 196.208 160.684C195.214 160.04 194.387 159.171 193.795 158.146C193.202 157.121 192.861 155.97 192.799 154.788C192.813 152.623 194.336 151.743 196.208 152.819Z" fill="#455A64"/>
<path d="M352.421 61.133C352.421 58.8139 350.801 57.8779 348.789 59.0374L335.392 66.7629L236.889 123.649C235.831 124.336 234.95 125.264 234.319 126.357C233.688 127.449 233.324 128.676 233.257 129.936V337.782C233.257 340.101 234.877 341.037 236.889 339.878L335.434 282.978L348.789 275.266C349.847 274.579 350.728 273.651 351.359 272.558C351.99 271.466 352.354 270.24 352.421 268.98V61.133Z" fill="white"/>
<path d="M353.818 61.133C353.906 60.4324 353.785 59.7214 353.471 59.089C353.157 58.4567 352.664 57.9309 352.053 57.5775C351.441 57.2242 350.739 57.0589 350.035 57.1024C349.33 57.1459 348.654 57.3962 348.09 57.8221L335.308 65.2122L236.19 122.489C234.914 123.295 233.853 124.399 233.099 125.706C232.344 127.013 231.919 128.483 231.859 129.991V337.782C231.803 338.48 231.937 339.179 232.247 339.806C232.557 340.434 233.032 340.965 233.62 341.344C234.12 341.635 234.69 341.785 235.268 341.778C236.087 341.752 236.886 341.516 237.587 341.093L336.775 283.816L349.529 276.454C350.798 275.64 351.854 274.535 352.607 273.229C353.361 271.924 353.79 270.457 353.86 268.952L353.818 61.133ZM335.336 281.427L334.19 282.097L236.246 338.648C236.081 338.775 235.891 338.863 235.688 338.906C235.485 338.95 235.275 338.948 235.073 338.9C234.891 338.788 234.709 338.397 234.709 337.754V129.936C234.782 128.921 235.083 127.936 235.592 127.056C236.1 126.175 236.801 125.421 237.643 124.85L335.489 68.2717L349.459 60.183C349.624 60.0565 349.815 59.9683 350.018 59.9248C350.221 59.8814 350.431 59.8836 350.633 59.9315C350.815 60.0433 350.996 60.4345 350.996 61.0771V268.98C350.924 269.994 350.622 270.979 350.114 271.859C349.606 272.74 348.904 273.494 348.062 274.065L335.308 281.427H335.336Z" fill="#FE006C"/>
<path d="M292.839 109.427C305.412 102.191 315.54 108.03 315.54 122.545C315.54 137.06 305.37 154.676 292.839 161.857C280.308 169.038 270.137 163.254 270.137 148.753C270.137 134.252 280.308 116.678 292.839 109.427Z" fill="#FE006C"/>
<path d="M292.839 120.827C296.904 118.48 300.201 120.38 300.201 125.018C300.063 127.573 299.324 130.06 298.045 132.276C296.766 134.492 294.982 136.375 292.839 137.773C288.774 140.12 285.477 138.22 285.477 133.582C285.615 131.027 286.353 128.54 287.632 126.324C288.912 124.108 290.695 122.225 292.839 120.827Z" fill="#FE006C"/>
<path d="M307.186 145.861C307.186 138.15 301.78 135.021 295.088 138.876L290.897 141.293C284.219 145.149 278.799 154.537 278.799 162.248V164.33C282.669 165.601 287.53 164.917 292.769 161.857C298.572 158.277 303.48 153.418 307.116 147.65L307.186 145.861Z" fill="#FE006C"/>
<path opacity="0.7" d="M292.839 120.827C296.904 118.48 300.201 120.38 300.201 125.018C300.063 127.573 299.324 130.06 298.045 132.276C296.766 134.492 294.982 136.375 292.839 137.773C288.774 140.12 285.477 138.22 285.477 133.582C285.615 131.027 286.353 128.54 287.632 126.324C288.912 124.108 290.695 122.225 292.839 120.827Z" fill="white"/>
<path opacity="0.7" d="M307.186 145.861C307.186 138.15 301.78 135.021 295.088 138.876L290.897 141.293C284.219 145.149 278.799 154.537 278.799 162.248V164.33C282.669 165.601 287.53 164.917 292.769 161.857C298.572 158.277 303.48 153.418 307.116 147.65L307.186 145.861Z" fill="white"/>
<path d="M248.917 193.779L278.128 176.917C279.525 176.149 280.545 176.763 280.545 178.314V179.278C280.501 180.117 280.259 180.935 279.839 181.663C279.419 182.391 278.833 183.01 278.128 183.469L248.917 200.331C247.59 201.099 246.5 200.47 246.5 198.934V197.97C246.545 197.13 246.788 196.314 247.208 195.585C247.628 194.857 248.213 194.238 248.917 193.779Z" fill="#FE006C"/>
<path opacity="0.1" d="M248.917 193.779L278.128 176.917C279.525 176.149 280.545 176.763 280.545 178.314V179.278C280.501 180.117 280.259 180.935 279.839 181.663C279.419 182.391 278.833 183.01 278.128 183.469L248.917 200.331C247.59 201.099 246.5 200.47 246.5 198.934V197.97C246.545 197.13 246.788 196.314 247.208 195.585C247.628 194.857 248.213 194.238 248.917 193.779Z" fill="black"/>
<path d="M247.716 214.133L336.09 163.114C336.747 162.723 337.292 163.031 337.292 163.813V174.123C337.267 174.541 337.146 174.948 336.937 175.312C336.729 175.675 336.439 175.986 336.09 176.218L247.716 227.237C247.045 227.628 246.5 227.307 246.5 226.538V216.229C246.524 215.808 246.647 215.4 246.858 215.036C247.069 214.672 247.363 214.363 247.716 214.133Z" fill="#FE006C"/>
<path opacity="0.2" d="M247.716 214.133L336.09 163.114C336.747 162.723 337.292 163.031 337.292 163.813V174.123C337.267 174.541 337.146 174.948 336.937 175.312C336.729 175.675 336.439 175.986 336.09 176.218L247.716 227.237C247.045 227.628 246.5 227.307 246.5 226.538V216.229C246.524 215.808 246.647 215.4 246.858 215.036C247.069 214.672 247.363 214.363 247.716 214.133Z" fill="white"/>
<path d="M248.917 239.642L278.128 222.781C279.525 222.012 280.545 222.641 280.545 224.178V225.141C280.502 225.981 280.261 226.799 279.84 227.527C279.42 228.256 278.834 228.875 278.128 229.333L248.917 246.194C247.59 246.977 246.5 246.348 246.5 244.797V243.833C246.548 242.995 246.791 242.179 247.211 241.451C247.63 240.723 248.215 240.104 248.917 239.642Z" fill="#FE006C"/>
<path opacity="0.1" d="M248.917 239.642L278.128 222.781C279.525 222.012 280.545 222.641 280.545 224.178V225.141C280.502 225.981 280.261 226.799 279.84 227.527C279.42 228.256 278.834 228.875 278.128 229.333L248.917 246.194C247.59 246.977 246.5 246.348 246.5 244.797V243.833C246.548 242.995 246.791 242.179 247.211 241.451C247.63 240.723 248.215 240.104 248.917 239.642Z" fill="black"/>
<path d="M247.716 259.997L336.09 208.978C336.747 208.587 337.292 208.908 337.292 209.677V219.987C337.267 220.405 337.146 220.812 336.937 221.176C336.729 221.539 336.439 221.849 336.09 222.082L247.716 273.101C247.045 273.492 246.5 273.185 246.5 272.402V262.092C246.524 261.672 246.647 261.264 246.858 260.9C247.069 260.535 247.363 260.226 247.716 259.997Z" fill="#FE006C"/>
<path opacity="0.2" d="M247.716 259.997L336.09 208.978C336.747 208.587 337.292 208.908 337.292 209.677V219.987C337.267 220.405 337.146 220.812 336.937 221.176C336.729 221.539 336.439 221.849 336.09 222.082L247.716 273.101C247.045 273.492 246.5 273.185 246.5 272.402V262.092C246.524 261.672 246.647 261.264 246.858 260.9C247.069 260.535 247.363 260.226 247.716 259.997Z" fill="white"/>
<path d="M282.962 265.85L317.887 245.719C319.284 244.937 320.318 245.566 320.318 247.116V257.901C320.272 258.742 320.028 259.56 319.606 260.289C319.183 261.017 318.594 261.635 317.887 262.092L282.962 282.237C281.565 283.005 280.545 282.377 280.545 280.84V270.041C280.594 269.203 280.838 268.387 281.257 267.659C281.677 266.932 282.261 266.312 282.962 265.85Z" fill="#FE006C"/>
<path opacity="0.1" d="M282.962 265.85L317.887 245.719C319.284 244.937 320.318 245.566 320.318 247.116V257.901C320.272 258.742 320.028 259.56 319.606 260.289C319.183 261.017 318.594 261.635 317.887 262.092L282.962 282.237C281.565 283.005 280.545 282.377 280.545 280.84V270.041C280.594 269.203 280.838 268.387 281.257 267.659C281.677 266.932 282.261 266.312 282.962 265.85Z" fill="black"/>
<path d="M365.665 220.336C365.665 220.336 348.509 196.671 347.504 193.793C346.707 191.669 347.504 188.512 347.755 187.045C348.007 185.578 348.23 182.309 348.482 181.457C348.901 179.865 346.847 180.186 345.688 181.639C344.528 183.092 344.137 185.997 343.536 186.472C342.935 186.947 338.367 180.284 335.978 177.21C333.589 174.137 332.095 172.265 330.628 173.41C329.58 174.235 330.362 176.023 332.095 178.649C333.106 180.063 334.039 181.533 334.889 183.05C335.154 183.623 333.729 183.664 332.961 184.852C332.36 185.774 332.961 187.269 332.123 187.981C331.607 188.374 331.253 188.942 331.13 189.579C331.006 190.215 331.121 190.875 331.452 191.432C333.007 193.874 335.013 195.998 337.361 197.69C339.932 199.465 340.966 200.093 342.488 202.51C344.011 204.927 357.674 229.612 358.596 231.093C359.518 232.574 361.292 235.591 363.988 235.675C366.685 235.759 388.757 216.76 389.889 215.81C393.521 212.778 394.681 212.345 395.295 215.069C395.508 216.038 395.666 217.017 395.77 218.003C396.203 221.467 398.564 233.845 398.564 233.845C398.564 233.845 409.74 239.251 418.919 236.639C428.097 234.027 431.198 230.129 431.198 230.129L426.602 222.641C427.845 219.554 433.587 207.036 435.445 198.277L406.667 193.625C406.08 193.499 405.13 193.262 403.873 192.941C402.294 192.521 398.285 191.138 395.253 193.793C385.363 202.412 365.693 220.336 365.693 220.336" fill="#FFA8A7"/>
<path d="M422.719 365.541L417.564 372.707C419.906 373.801 422.466 374.35 425.052 374.314C429.676 374.482 430.947 372.917 431.115 372.61C431.897 370.933 430.681 367.916 430.346 365.317L422.719 365.541Z" fill="#37474F"/>
<path d="M417.857 369.271C417.857 369.271 411.598 368.866 407.281 368.335C402.965 367.804 399.542 369.899 400.548 371.674C401.554 373.448 403.943 374.929 407.659 376.172C410.83 377.248 414.644 378.016 417.941 378.966C421.238 379.916 423.529 381.159 425.443 380.489C427.58 379.748 428.502 378.896 428.32 377.331C427.854 375.106 427.276 372.905 426.588 370.738L417.857 369.271Z" fill="#37474F"/>
<path d="M431.115 358.346C431.115 358.346 430.332 364.856 430.276 366.253C430.221 367.65 423.92 368.097 422.719 365.541L422.523 357.578L431.115 358.346Z" fill="#F28F8F"/>
<path d="M424.772 362.342L427.021 372.232C427.021 372.232 427.231 373.434 422.09 374.202C416.949 374.97 408.874 371.506 407.491 370.807C406.108 370.109 405.954 368.698 411.012 368.977C416.069 369.257 417.857 369.271 417.857 369.271L416.208 364.898L424.772 362.342Z" fill="#FFA8A7"/>
<path d="M435.361 198.193L438.924 197.201C438.924 197.201 446.37 220.769 447.194 223.046C448.018 225.323 448.954 227.726 447.348 230.534C445.434 233.873 435.361 247.298 435.361 247.298L428.963 241.039L436.228 227.74L429.801 214.748L435.361 198.193Z" fill="#F28F8F"/>
<path d="M398.774 167.585C397.939 166.017 397.515 164.263 397.541 162.487C397.568 160.711 398.045 158.97 398.927 157.429C402.476 150.849 410.383 147.65 419.799 148.865C424.157 149.438 429.298 153.056 432.106 158.462C435.208 164.456 435.501 176.526 436.297 181.094L398.774 167.585Z" fill="#37474F"/>
<path d="M398.522 170.169C398.522 170.169 396.287 174.43 396.678 174.821C397.257 175.16 397.891 175.396 398.55 175.52L398.522 170.169Z" fill="#FFA8A7"/>
<path d="M405.312 156.702C402.881 158.281 398.69 161.187 398.508 170.756C398.313 180.535 399.71 183.762 401.163 184.894C402.14 185.662 407.882 185.271 410.341 184.698C412.8 184.125 419.882 180.619 422.439 175.296C425.443 169.038 424.828 159.929 420.371 157.135C418.103 155.794 415.531 155.051 412.897 154.975C410.263 154.899 407.653 155.494 405.312 156.702Z" fill="#FFA8A7"/>
<path d="M431.114 230.073C435.417 236.779 439.496 242.646 440.39 250.218C442.235 266.13 436.199 284.319 434.9 296.095C437.344 299.445 438.752 303.437 438.952 307.579C438.952 312.454 431.114 358.346 431.114 358.346C431.114 358.346 425.415 360.078 422.523 357.578L417.144 273.157L419.938 262.875L431.114 230.073Z" fill="#FE006C"/>
<path opacity="0.2" d="M431.114 230.073C435.417 236.779 439.496 242.646 440.39 250.218C442.235 266.13 436.199 284.319 434.9 296.095C437.344 299.445 438.752 303.437 438.952 307.579C438.952 312.454 431.114 358.346 431.114 358.346C431.114 358.346 425.415 360.078 422.523 357.578L417.144 273.157L419.938 262.875L431.114 230.073Z" fill="black"/>
<path d="M417.144 273.157L419.938 262.875C425.288 261.466 430.448 259.417 435.305 256.77C435.305 256.77 432.4 262.064 424.046 264.97L419.729 278.172L419.366 308.417L417.144 273.157Z" fill="#FE006C"/>
<path opacity="0.3" d="M417.144 273.157L419.938 262.875C425.288 261.466 430.448 259.417 435.305 256.77C435.305 256.77 432.4 262.064 424.046 264.97L419.729 278.172L419.366 308.417L417.144 273.157Z" fill="black"/>
<path d="M431.114 230.073C433.42 233.845 438.924 240.271 437.75 246.46C436.353 253.948 432.302 259.215 419.98 262.875L408.413 304.785C408.413 304.785 414.434 310.373 416.278 315.779C418.122 321.186 424.772 362.369 424.772 362.369C424.772 362.369 422.705 365.736 416.208 364.926C416.208 364.926 393.563 313.237 391.97 309.87C390.037 306.46 389.36 302.481 390.056 298.624C390.769 293.204 398.439 233.873 398.439 233.873L431.114 230.073Z" fill="#FE006C"/>
<path opacity="0.2" d="M431.114 230.073C433.42 233.845 438.924 240.271 437.75 246.46C436.353 253.948 432.302 259.215 419.98 262.875L408.413 304.785C408.413 304.785 414.434 310.373 416.278 315.779C418.122 321.186 424.772 362.369 424.772 362.369C424.772 362.369 422.705 365.736 416.208 364.926C416.208 364.926 393.563 313.237 391.97 309.87C390.037 306.46 389.36 302.481 390.056 298.624C390.769 293.204 398.439 233.873 398.439 233.873L431.114 230.073Z" fill="black"/>
<path d="M435.361 198.193L406.583 193.541C405.996 193.416 405.046 193.178 403.789 192.857C403.789 192.857 402.56 210.906 395.169 215.041C395.351 215.907 395.505 216.871 395.644 217.975C396.077 221.439 398.438 233.817 398.438 233.817C398.438 233.817 409.614 239.223 418.793 236.611C427.971 233.999 431.072 230.101 431.072 230.101L426.476 222.613C427.762 219.498 433.545 206.98 435.361 198.193Z" fill="#FE006C"/>
<path opacity="0.7" d="M435.361 198.193L406.583 193.541C405.996 193.416 405.046 193.178 403.789 192.857C403.789 192.857 402.56 210.906 395.169 215.041C395.351 215.907 395.505 216.871 395.644 217.975C396.077 221.439 398.438 233.817 398.438 233.817C398.438 233.817 409.614 239.223 418.793 236.611C427.971 233.999 431.072 230.101 431.072 230.101L426.476 222.613C427.762 219.498 433.545 206.98 435.361 198.193Z" fill="white"/>
<path d="M427.776 219.637C423.954 221.932 419.949 223.909 415.803 225.547C419.566 225.472 423.251 224.453 426.518 222.585L427.776 219.637Z" fill="#FE006C"/>
<path d="M404.599 157.177C404.599 157.177 403.202 166.258 406.499 171.594C406.499 171.594 407.729 167.976 410.788 168.661C413.848 169.345 414.015 173.382 411.864 175.646C411.317 176.28 410.602 176.748 409.802 176.995C409.001 177.242 408.147 177.259 407.338 177.043C407.338 177.043 406.849 183.609 406.583 189.113C406.318 194.617 404.865 206.617 411.054 211.465C417.242 216.312 432.777 218.017 440.055 207.847C444.107 202.189 438.728 192.186 436.228 180.968C433.923 170.658 432.623 155.375 421.685 152.916C410.746 150.458 404.599 157.177 404.599 157.177Z" fill="#37474F"/>
<path d="M444.735 33.109L442.43 34.506C442.624 33.6859 442.731 32.8478 442.751 32.0054C442.751 27.3254 439.468 25.4395 435.417 27.8144C434.184 28.5581 433.084 29.5024 432.162 30.6084C432.162 24.3219 427.748 21.7653 422.299 24.9086C419.428 26.781 417.039 29.3037 415.325 32.2722C413.612 35.2407 412.622 38.5714 412.436 41.994C412.436 42.3153 412.436 42.6226 412.436 42.93C411.033 42.7534 409.612 43.0801 408.427 43.852C406.292 45.243 404.516 47.1179 403.241 49.3243C401.967 51.5307 401.231 54.0065 401.093 56.5508C401.092 57.1422 401.153 57.7322 401.274 58.311L400.045 59.0235C396.706 60.9514 393.996 64.7093 393.996 67.4055C393.996 70.1017 396.706 70.7444 400.045 68.8025L444.749 43.0278C448.088 41.0999 450.798 37.3419 450.798 34.6457C450.798 31.9495 448.074 31.1672 444.735 33.109Z" fill="#EBEBEB"/>
</svg>
