<svg width="99" height="99" viewBox="0 0 99 99" fill="none" xmlns="http://www.w3.org/2000/svg">
<circle cx="49.5" cy="49.5" r="47" stroke="url(#paint0_linear_1_13)" stroke-width="5"/>
<circle cx="49.5" cy="49.5" r="37.5" fill="url(#paint1_linear_1_13)"/>
<path d="M34 58H40C40 61.24 44.11 64 49 64C53.89 64 58 61.24 58 58C58 54.7 54.88 53.5 48.28 51.91C41.92 50.32 34 48.34 34 40C34 34.63 38.41 30.07 44.5 28.54V22H53.5V28.54C59.59 30.07 64 34.63 64 40H58C58 36.76 53.89 34 49 34C44.11 34 40 36.76 40 40C40 43.3 43.12 44.5 49.72 46.09C56.08 47.68 64 49.66 64 58C64 63.37 59.59 67.93 53.5 69.46V76H44.5V69.46C38.41 67.93 34 63.37 34 58Z" fill="white"/>
<defs>
<linearGradient id="paint0_linear_1_13" x1="82.5" y1="-4.5" x2="11.5" y2="99" gradientUnits="userSpaceOnUse">
<stop stop-color="#FE006C"/>
<stop offset="1" stop-color="#7000FF"/>
</linearGradient>
<linearGradient id="paint1_linear_1_13" x1="81.3182" y1="8.21212" x2="23.7424" y2="91.5455" gradientUnits="userSpaceOnUse">
<stop stop-color="#FE006C"/>
<stop offset="1" stop-color="#7000FF"/>
</linearGradient>
</defs>
</svg>